# xmcd
#
# Track frame offsets: 
#        150
#        14008
#        32588
#        47823
#        63350
#        80511
#        102468
#        117976
#        132582
#        154833
#        172933
#        194714
#        217425
#        240891
#        258183
#
# Disc length: 3626 seconds
#
# Revision: 0
# Processed by: cddbd v1.5.2PL0 Copyright (c) Steve Scherf et al.
# Submitted via: ExactAudioCopyFreeDBPlugin 1.0
#
DISCID=d80e280f
DTITLE=Eliza Gilkyson - Hard Times in Babylon
DYEAR=2000
DGENRE=Country
TTITLE0=Beauty Way
TTITLE1=Hard Times in Babylon
TTITLE2=Highway
TTITLE3=Coast
TTITLE4=Engineer Bill
TTITLE5=Petsephone
TTITLE6=Baby's Waking
TTITLE7=Twisted
TTITLE8=Flatline
TTITLE9=In My Dreams
TTITLE10=Walk Away From Love
TTITLE11=Sanctuary
TTITLE12=The Hollywood Years
TTITLE13=Love Minus Zero No Limit
TTITLE14=Beaury Way Alt Take
EXTD=
EXTT0=
EXTT1=
EXTT2=
EXTT3=
EXTT4=
EXTT5=
EXTT6=
EXTT7=
EXTT8=
EXTT9=
EXTT10=
EXTT11=
EXTT12=
EXTT13=
EXTT14=
PLAYORDER=
